<?xml version="1.0" encoding="UTF-8"?>
<!DOCTYPE svg PUBLIC "-//W3C//DTD SVG 1.1//EN" "http://www.w3.org/Graphics/SVG/1.1/DTD/svg11.dtd">
<svg version="1.1" xmlns="http://www.w3.org/2000/svg" xmlns:xlink="http://www.w3.org/1999/xlink" x="0" y="0" width="64" height="64" viewBox="0, 0, 64, 64">
  <g id="Layer_1">
    <path d="M14.494,30.855 C16.225,30.855 17.633,32.265 17.633,33.996 C17.633,35.727 16.225,37.135 14.494,37.135 C12.763,37.135 11.355,35.727 11.355,33.996 C11.355,32.265 12.763,30.855 14.494,30.855 z M26.759,19.063 C28.476,19.063 29.872,20.458 29.872,22.175 C29.872,23.892 28.476,25.288 26.759,25.288 C25.044,25.288 23.649,23.892 23.649,22.175 C23.649,20.458 25.044,19.063 26.759,19.063 z M37.955,35.886 C39.686,35.886 41.094,37.295 41.094,39.025 C41.094,40.756 39.686,42.163 37.955,42.163 C36.225,42.163 34.817,40.756 34.817,39.025 C34.817,37.295 36.225,35.886 37.955,35.886 z M49.814,13.596 C51.506,13.596 52.885,14.973 52.885,16.665 C52.885,18.358 51.506,19.735 49.814,19.735 C48.121,19.735 46.744,18.358 46.744,16.665 C46.744,14.973 48.121,13.596 49.814,13.596 z M14.494,40.091 C17.861,40.091 20.591,37.362 20.591,33.994 C20.591,33.17 20.422,32.387 20.126,31.669 L24.126,27.652 C24.927,28.037 25.812,28.272 26.759,28.272 C27.178,28.272 27.587,28.228 27.98,28.148 L32.898,35.62 C32.242,36.591 31.86,37.764 31.86,39.025 C31.86,42.392 34.589,45.122 37.955,45.122 C41.323,45.122 44.051,42.392 44.051,39.025 C44.051,37.561 43.514,36.234 42.653,35.183 L49.271,22.706 C49.452,22.722 49.628,22.761 49.814,22.761 C53.181,22.761 55.911,20.031 55.911,16.665 C55.911,13.298 53.181,10.568 49.814,10.568 C46.448,10.568 43.718,13.298 43.718,16.665 C43.718,18.129 44.257,19.456 45.117,20.507 L38.5,32.984 C38.318,32.968 38.143,32.929 37.955,32.929 C37.569,32.929 37.195,32.974 36.829,33.043 L31.861,25.498 C32.486,24.541 32.856,23.403 32.856,22.175 C32.856,18.809 30.127,16.079 26.759,16.079 C23.393,16.079 20.664,18.809 20.664,22.175 C20.664,22.86 20.802,23.507 21.011,24.121 L16.794,28.355 C16.084,28.065 15.309,27.899 14.494,27.899 C11.126,27.899 8.398,30.628 8.398,33.994 C8.398,37.362 11.126,40.091 14.494,40.091 z M55.101,50.299 L8.899,50.299 C8.034,50.299 7.333,50.999 7.333,51.866 C7.333,52.732 8.034,53.432 8.899,53.432 L55.101,53.432 C55.966,53.432 56.667,52.732 56.667,51.866 C56.667,50.999 55.966,50.299 55.101,50.299" fill="#5D5E5A"/>
  </g>
</svg>
