<?xml version="1.0" encoding="UTF-8"?>
<!DOCTYPE svg PUBLIC "-//W3C//DTD SVG 1.1//EN" "http://www.w3.org/Graphics/SVG/1.1/DTD/svg11.dtd">
<svg version="1.1" xmlns="http://www.w3.org/2000/svg" xmlns:xlink="http://www.w3.org/1999/xlink" x="0" y="0" width="512" height="512" viewBox="0, 0, 512, 512">
  <g id="Layer_1">
    <path d="M422.222,145.441 C422.636,114.092 413.277,102.826 403.148,95.849 L371.359,83.133 C365.219,53.672 345.236,40.908 303.965,45.621 C279.161,35.698 253.557,29.202 225.126,34.813 C177.822,17.669 143.167,25.092 108.139,34.176 C52.837,20.753 21.174,58.638 52.824,117.466 C26.51,164.447 15.11,221.808 15.313,265.758 L35.022,252.89 C35.158,298.866 47.933,333.1 66.176,362.247 L77.621,343.173 C81.48,355.679 91.381,371.224 117.04,394.673 L125.305,384.5 C140.755,403.61 163.481,422.06 193.971,439.814 L194.607,411.839 C209.998,417.511 229.878,432.046 253.1,453.166 L262.001,431.549 C281.243,438.36 299.609,462 326.853,487.5 C341.4,464.413 349.265,431.14 354.192,393.401 L366.908,401.667 C371.895,385.868 375.057,368.001 372.63,343.81 L392.34,343.173 C393.791,326.742 389.252,309.687 368.613,278.414 C397.883,276.888 437.398,243.433 418.797,192.49 C432.808,176.567 428.337,158.145 422.222,145.441" fill="#0A0B09"/>
    <path d="M364.206,158.475 C338.373,151.93 326.519,138.359 324.762,129.522 C332.031,105.335 347.254,94.951 370.087,97.121 L353.556,88.22 C347.27,55.512 332.818,56.263 313.501,58.337 C326.666,66.256 329.555,72.964 329.396,79.318 C288.995,49.475 263.381,44.409 235.934,45.621 C256.892,55.738 260.436,63.165 264.545,69.781 C197.516,33.684 155.272,37.892 118.312,50.707 C46.645,28.912 52.924,95.237 69.355,114.288 L85.25,136.54 L62.997,127.638 C41.221,164.11 31.815,200.318 30.572,236.36 L50.917,228.73 C46.005,266.712 51.016,300.969 63.633,332.366 L75.077,313.927 C77.903,332.679 92.094,352.973 115.133,374.964 L117.676,354.618 C137.576,378.85 157.262,398.226 176.805,414.383 L177.441,387.044 C192.755,392.38 211.754,401.362 247.06,426.462 L247.06,407.388 C271.297,417.231 295.842,432.657 321.131,461.432 C334.911,439.537 339.835,402.565 344.655,365.426 L357.371,375.599 L358.007,324.736 L373.902,326.643 C370.746,308.979 363.836,297.408 348.061,279.479 C324.444,281.095 299.339,290.132 280.44,325.371 C279.482,294.706 286.329,268.042 323.038,256.694 C384.249,262.205 391.919,250.022 395.519,238.267 C346.026,244.816 289.579,236.197 261.934,226.278 L232.393,237.95 C232.393,237.95 249.186,199.329 293.792,196.941 C365,193.125 382.803,170.237 382.803,170.237 L405.692,184.224 C413.373,175.594 415.416,167.681 406.962,152.435 C391.207,165.099 377.617,165.842 364.206,158.475" fill="#1C5775"/>
    <path d="M210.888,112.558 C208.055,120.872 206.866,131.195 209.791,136.131 L227.967,112.558 L193.892,77.24 C196.396,87.158 198.299,96.723 210.888,112.558" fill="#153648"/>
    <path d="M69.034,311.13 C60.446,287.442 59.302,254.154 62.381,216.344 L38.241,225.174 C47.003,176.182 53.588,160.632 69.034,137.453 L91.226,140.982 C70.778,105.473 60.78,79.369 67.099,56.104 C52.749,71.855 59.06,102.35 69.355,114.288 L85.25,136.54 L62.997,127.638 C41.221,164.11 31.815,200.318 30.572,236.36 L50.917,228.73 C46.005,266.712 51.016,300.969 63.633,332.366 L75.077,313.927 C77.903,332.679 92.094,352.973 115.133,374.964 L116.249,366.023 C103.506,348.204 88.063,322.88 75.332,298.179 L69.034,311.13" fill="#163648"/>
    <path d="M388.934,221.709 L372.471,222.055 C373.576,218.724 372.344,207.825 366.459,194.577 C364.301,210.606 359.043,222.408 355.94,229.049 C367.087,230.515 377.649,232.239 400.129,228.73 C401.948,224.029 405.271,206.41 402.092,194.882 L388.934,221.709" fill="#FFFFFE"/>
    <path d="M342.772,228.21 C345.005,221.876 353.962,212.009 355.94,200.119 C325.371,208.945 293.105,206.811 274.876,214.341 C294.61,220.664 311.435,226.978 342.772,228.21" fill="#212220"/>
    <path d="M339.33,132.089 C342.97,138.296 349.347,143.704 361.742,147.348 C372.574,123.506 378.273,123.188 378.833,146.395 C384.142,152.773 389.418,153.405 394.644,144.487 C400.553,121.273 402.127,125.85 401.726,143.057 C413.485,130.762 408.099,121.345 401.726,111.585 C371.255,89.876 340.765,111.863 339.33,132.089" fill="#212220"/>
    <path d="M73.25,76.775 C73.926,91.585 76.13,97.562 78.495,102.612 C80.808,94.756 83.128,86.92 90.893,87.266 C97.286,100.153 96.695,106.534 95.185,112.062 C103.339,106.662 108.397,96.163 108.06,76.775 C93.754,61.71 80.443,66.419 73.25,76.775" fill="#0A0B09"/>
    <path d="M417.057,143.057 L417.057,158.792 C432.359,158.399 463.418,174.699 496.69,195.987 C476.643,169.522 451.04,150.599 417.057,143.057" fill="#0A0B09"/>
    <path d="M417.057,164.515 L417.057,176.912 C436.377,180.998 469.442,202.778 496.69,221.26 C479.801,198.899 445.195,170.408 417.057,164.515" fill="#0A0B09"/>
    <path d="M417.057,182.158 L413.241,192.887 C448.652,208.107 463.112,223.036 476.662,237.95 C465.019,218.526 453.11,199.13 417.057,182.158" fill="#0A0B09"/>
    <path d="M381.293,214.345 L390.83,195.987 L374.14,195.987 L381.293,214.345" fill="#212220"/>
    <path d="M364.206,158.475 C339.406,152.192 327.489,139.433 325.021,130.603 C261.644,125.886 244.064,157.831 195.119,164.674 C195.887,151.616 191.687,141.658 179.225,136.858 C157.429,142.393 135.3,141.996 111.672,114.72 L92.371,143.057 L78.805,133.961 L62.997,127.638 C41.221,164.11 31.815,200.318 30.572,236.36 L50.917,228.73 C46.005,266.712 51.016,300.969 63.633,332.366 L75.077,313.927 C77.903,332.679 92.094,352.973 115.133,374.964 L117.676,354.618 C137.576,378.85 157.262,398.226 176.805,414.383 L177.441,387.044 C192.755,392.38 211.754,401.362 247.06,426.462 L247.06,407.388 C271.297,417.231 295.842,432.657 321.131,461.432 C334.911,439.537 339.835,402.565 344.655,365.426 L357.371,375.599 L358.007,324.735 L373.902,326.643 C370.746,308.979 363.836,297.408 348.061,279.479 C324.444,281.095 299.339,290.132 280.44,325.371 C279.482,294.706 286.329,268.042 323.038,256.694 C384.249,262.205 391.919,250.022 395.519,238.267 C346.026,244.816 289.579,236.197 261.934,226.278 L232.393,237.95 C232.393,237.95 249.186,199.329 293.792,196.941 C365,193.125 382.803,170.237 382.803,170.237 L405.692,184.224 C413.373,175.594 415.416,167.681 406.962,152.435 C387.798,163.366 373.563,160.263 364.206,158.475" fill="#52899C"/>
    <path d="M374.14,247.169 C351.438,256.257 320.996,247.169 320.996,247.169 C320.996,247.169 289.48,259.995 283.607,279.225 C280.026,290.936 280.014,304.231 280.551,312.838 C281.966,287.585 291.435,266.465 323.038,256.694 C384.249,262.205 391.919,250.022 395.519,238.267 C392.352,238.688 389.153,239.042 385.938,239.34 C383.415,242.058 379.664,244.959 374.14,247.169" fill="#8FB3BC"/>
    <path d="M107.897,367.811 L107.898,367.807 C107.103,366.992 106.322,366.18 105.554,365.37 C106.309,366.195 107.084,367.012 107.897,367.811" fill="#8FB3BC"/>
    <path d="M64.611,313.943 C58.889,300.845 53.902,279.606 49.057,256.766 C49.014,283.806 54.196,308.884 63.633,332.366 L75.077,313.927 C77.487,329.921 88.17,347.036 105.554,365.37 C90.513,348.955 86.313,327.738 75.515,310.644 L64.611,313.943" fill="#8FB3BC"/>
    <path d="M283.38,320.182 C303.873,301.445 324.615,291.189 345.565,288.078 L362.655,317.145 L349.304,315.008 C351.184,335.81 352.118,351.192 351.975,360.412 L338.087,348.124 C334.237,389.75 327.958,422.8 318.858,445.87 C283.63,415.388 260.862,404.85 239.272,396.199 L244.088,413.29 C209.322,390.421 188.742,383.658 168.234,376.97 L168.766,398.869 L112.149,344.385 L107.898,367.807 C110.203,370.173 112.612,372.558 115.133,374.964 L117.676,354.618 C137.576,378.85 157.262,398.226 176.805,414.383 L177.441,387.044 C192.755,392.38 211.754,401.362 247.06,426.462 L247.06,407.388 C271.297,417.231 295.842,432.657 321.131,461.432 C334.911,439.537 339.835,402.565 344.655,365.426 L357.371,375.599 L358.007,324.736 L373.902,326.643 C370.746,308.979 363.836,297.408 348.061,279.479 C325.649,281.013 301.897,289.23 283.38,320.182" fill="#8FB3BC"/>
    <path d="M404.606,153.722 C407.336,162.298 408.497,170.658 405.529,178.463 C394.3,171.898 387.376,168.834 382.195,167.197 C382.195,167.197 349.631,186.891 312.937,189.574 C288.597,191.353 272.58,198.677 262.438,205.929 C270.843,201.172 281.211,197.616 293.792,196.941 C365,193.125 382.803,170.237 382.803,170.237 L405.692,184.224 C413.373,175.594 415.416,167.681 406.962,152.435 C406.169,152.888 405.382,153.317 404.606,153.722" fill="#82AAB5"/>
    <path d="M118.312,50.707 C93.448,43.145 77.966,46.189 69.034,54.189 C82.54,51.419 98.666,51.188 119.508,55.539 C163.072,42.804 208.138,48.911 253.943,64.301 C192.99,34.161 153.285,38.583 118.312,50.707" fill="#37768E"/>
    <path d="M235.934,45.621 C237.508,46.38 238.982,47.123 240.365,47.854 C262.081,52.388 289.182,61.862 320.602,73.052 C285.168,48.756 261.335,44.501 235.934,45.621" fill="#37768E"/>
    <path d="M313.501,58.337 C314.26,58.794 314.984,59.247 315.675,59.696 C320.396,60.268 330.068,61.917 337.439,66.305 C347.572,72.332 349.436,89.554 349.436,89.554 L359.803,97.041 C363.038,96.747 366.467,96.775 370.087,97.121 L353.556,88.22 C347.27,55.512 332.818,56.263 313.501,58.337" fill="#37768E"/>
    <path d="M115.133,374.964 C114.07,373.948 113.032,372.939 112.007,371.932 C113.757,374.422 114.89,375.584 115.133,374.964" fill="#466E7A"/>
    <path d="M69.034,311.13 C60.446,287.442 59.302,254.154 62.381,216.344 L38.241,225.174 C47.003,176.182 53.588,160.632 69.034,137.453 L88.676,140.577 L78.805,133.961 L62.997,127.638 C41.221,164.11 31.815,200.318 30.572,236.36 L50.917,228.73 C46.005,266.712 51.016,300.969 63.633,332.366 L75.077,313.927 C77.772,331.814 90.814,351.105 112.007,371.932 C104.177,360.789 83.948,322.956 75.332,298.179 L69.034,311.13" fill="#466E7A"/>
    <path d="M283.38,320.182 C303.873,301.445 324.615,291.189 345.565,288.078 L349.971,295.573 C353.949,295.994 358.137,296.804 362.609,298.036 C358.873,292.318 354.12,286.37 348.061,279.479 C325.649,281.013 301.897,289.23 283.38,320.182" fill="#466E7A"/>
    <path d="M366.125,196.877 C363.797,211.738 358.894,222.729 355.94,229.049 C367.087,230.515 377.649,232.239 400.129,228.73 C400.418,227.979 400.748,226.898 401.083,225.568 L364.639,225.869 C366.872,211.572 366.769,203.505 366.125,196.877" fill="#C8C6C1"/>
    <path d="M363.86,104.472 C376.433,107.543 388.939,111.461 401.083,120.025 C403.375,128.131 404.309,134.553 404.396,139.937 C412.546,129.132 407.551,120.502 401.726,111.585 C388.275,102 374.82,100.935 363.86,104.472" fill="#3D3E3C"/>
    <path d="M242.053,82.959 C223.711,80.8 195.036,77.24 195.036,77.24 C195.036,77.24 212.903,88.267 221.684,90.516 C230.47,92.761 252.027,94.601 255.294,95.825 C258.564,97.053 276.947,102.612 276.947,102.612 C276.947,102.612 266.361,85.819 242.053,82.959" fill="#37768E"/>
    <path d="M221.505,113.969 C213.176,122.6 207.852,131.616 209.628,138.332 C225.539,124.699 250.303,106.387 278.691,102.612 C258.357,86.614 231.75,89.765 193.892,76.775 C199.308,92.078 213.785,106.499 221.505,113.969" fill="#0A0B09"/>
    <path d="M226.317,107.555 L242.053,97.756 C230.144,96.373 220.906,95.094 213.876,93.902 L226.317,107.555" fill="#FFFFFE"/>
    <path d="M195.036,188.973 L304.286,148.691 L300.729,141.88 C260.241,152.28 228.249,171.243 195.036,188.973" fill="#466E7A"/>
    <path d="M215.434,209.41 C248.336,188.075 281.453,170.722 308.43,165.425 L304.286,160.541 C274.59,164.216 243.428,185.106 215.434,209.41" fill="#466E7A"/>
    <path d="M308.43,177.716 L308.43,174.755 C272.314,180.338 248.113,205.588 225.893,226.588 C255.918,204.892 285.776,183.795 308.43,177.716" fill="#466E7A"/>
    <path d="M300.575,138.531 C248.364,149.407 216.196,168.687 181.991,195.986 C226.505,171.254 263.997,154.211 303.698,147.964 C308.533,143.41 305.692,137.462 300.575,138.531" fill="#FFFFFE"/>
    <path d="M303.988,156.098 C261.851,164.435 236.53,189.895 208.829,214.163 C236.124,196.376 254.308,173.873 306.19,164.396 C310.652,163.581 308.788,157.6 303.988,156.098" fill="#FFFFFE"/>
    <path d="M303.857,170.869 C265.92,181.951 239.093,204.689 221.505,231.25 C253.613,198.546 279.919,182.85 306.19,178.514 C312.186,177.521 309.897,169.105 303.857,170.869" fill="#FFFFFE"/>
    <path d="M364.206,158.475 C339.406,152.192 327.489,139.433 325.021,130.603 C321.675,130.353 318.46,130.206 315.357,130.154 C320.845,138.872 336.397,159.762 361.643,163.966 C383.654,167.626 396.958,159.79 403.184,154.442 C385.915,162.957 372.939,160.144 364.206,158.475" fill="#466E7A"/>
  </g>
</svg>
