<?xml version="1.0" encoding="UTF-8"?>
<!DOCTYPE svg PUBLIC "-//W3C//DTD SVG 1.1//EN" "http://www.w3.org/Graphics/SVG/1.1/DTD/svg11.dtd">
<svg version="1.1" xmlns="http://www.w3.org/2000/svg" xmlns:xlink="http://www.w3.org/1999/xlink" x="0" y="0" width="64" height="64" viewBox="0, 0, 64, 64">
  <g id="Layer_1">
    <path d="M39.62,12.185 L46.071,12.185 L46.071,15.917 L39.62,15.917 z M39.62,48.081 L46.071,48.081 L46.071,51.815 L39.62,51.815 z M28.773,48.081 L35.225,48.081 L35.225,51.815 L28.773,51.815 z M17.927,48.081 L24.379,48.081 L24.379,51.815 L17.927,51.815 z M17.787,24.529 C17.787,22.18 19.69,20.277 22.041,20.277 L41.465,20.277 C43.813,20.277 45.717,22.18 45.717,24.529 L45.717,39.761 C45.717,42.11 43.813,44.013 41.465,44.013 L22.041,44.013 C19.69,44.013 17.787,42.11 17.787,39.761 L17.787,24.529 z M17.927,12.185 L24.379,12.185 L24.379,15.917 L17.927,15.917 z M28.773,12.185 L35.225,12.185 L35.225,15.917 L28.773,15.917 z M55.713,12.185 L55.713,9.167 L8.287,9.167 L8.287,12.185 L13.532,12.185 L13.532,15.917 L8.287,15.917 L8.287,20.277 L10.07,20.277 C12.419,20.277 14.322,22.18 14.322,24.529 L14.322,39.761 C14.322,42.11 12.419,44.013 10.07,44.013 L8.287,44.013 L8.287,48.081 L13.532,48.081 L13.532,51.815 L8.287,51.815 L8.287,54.833 L55.713,54.833 L55.713,51.815 L50.466,51.815 L50.466,48.081 L55.713,48.081 L55.713,44.013 L53.928,44.013 C51.58,44.013 49.676,42.11 49.676,39.761 L49.676,24.529 C49.676,22.18 51.58,20.277 53.93,20.277 L55.713,20.277 L55.713,15.917 L50.466,15.917 L50.466,12.185 L55.713,12.185" fill="#5D5F5B"/>
  </g>
</svg>
