<?xml version="1.0" encoding="UTF-8"?>
<!DOCTYPE svg PUBLIC "-//W3C//DTD SVG 1.1//EN" "http://www.w3.org/Graphics/SVG/1.1/DTD/svg11.dtd">
<svg version="1.1" xmlns="http://www.w3.org/2000/svg" xmlns:xlink="http://www.w3.org/1999/xlink" x="0" y="0" width="64" height="64" viewBox="0, 0, 64, 64">
  <g id="Layer_1">
    <path d="M52.02,49.046 L23.413,49.046 L23.413,41.85 C24.766,40.249 26.955,38.239 27.993,38.239 C30.101,38.239 35.3,41.666 37.96,45.867 L38.904,45.223 C38.165,43.537 37.312,42.314 36.423,41.42 C40.658,36.879 44.067,31.822 45.375,31.5 C47.609,30.951 50.838,33.829 52.02,35.047 L52.02,49.046 z M20.014,52.269 L55.417,52.269 L55.417,24.697 L20.014,24.697 z M43.068,11.731 L8.583,19.744 L14.823,46.601 L17.281,46.029 L17.281,21.965 L45.445,21.965 L43.068,11.731" fill="#5D5F5B"/>
  </g>
</svg>
